Disc Title:     Peter Rabbit 2: The Runaway - Blu-ray™
Disc Label:     Peter.Rabbit.2.The.Runaway.2021.COMPLETE.BLURAY-BEATRIX
Disc Size:      28,753,482,429 bytes
Protection:     AACS
Extras:         BD-Java
BDInfo:         0.7.5.6

Notes:          

BDINFO HOME:
  Cinema Squid (old)
    http://www.cinemasquid.com/blu-ray/tools/bdinfo
  UniqProject GitHub (new)
   https://github.com/UniqProject/BDInfo

INCLUDES FORUMS REPORT FOR:
  AVS Forum Blu-ray Audio and Video Specifications Thread
    http://www.avsforum.com/avs-vb/showthread.php?t=1155731


********************
PLAYLIST: 00358.MPLS
********************

<--- BEGIN FORUMS PASTE --->
[code]
                                                                                                                Total   Video                                             
Title                                                           Codec   Length  Movie Size      Disc Size       Bitrate Bitrate Main Audio Track                          Secondary Audio Track
-----                                                           ------  ------- --------------  --------------  ------- ------- ------------------                        ---------------------
00358.MPLS                                                      AVC     1:33:22 20,381,276,160  28,753,482,429  29.10   24.81   DTS-HD Master 5.1 2233Kbps (48kHz/16-bit) DD AC3 5.1 448Kbps
[/code]

[code]

DISC INFO:

Disc Title:     Peter Rabbit 2: The Runaway - Blu-ray™
Disc Label:     Peter.Rabbit.2.The.Runaway.2021.COMPLETE.BLURAY-BEATRIX
Disc Size:      28,753,482,429 bytes
Protection:     AACS
Extras:         BD-Java
BDInfo:         0.7.5.6

PLAYLIST REPORT:

Name:                   00358.MPLS
Length:                 1:33:22.596 (h:m:s.ms)
Size:                   20,381,276,160 bytes
Total Bitrate:          29.10 Mbps

VIDEO:

Codec                   Bitrate             Description     
-----                   -------             -----------     
MPEG-4 AVC Video        24811 kbps          1080p / 23.976 fps / 16:9 / High Profile 4.1

AUDIO:

Codec                           Language        Bitrate         Description     
-----                           --------        -------         -----------     
DTS-HD Master Audio             English         2233 kbps       5.1 / 48 kHz /  2233 kbps / 16-bit (DTS Core: 5.1 / 48 kHz /  1509 kbps / 16-bit)
Dolby Digital Audio             English         448 kbps        5.1 / 48 kHz /   448 kbps / DN -31dB

SUBTITLES:

Codec                           Language        Bitrate         Description     
-----                           --------        -------         -----------     
Presentation Graphics           English         51.085 kbps                     
Presentation Graphics           Arabic          24.043 kbps                     

FILES:

Name            Time In         Length          Size            Total Bitrate   
----            -------         ------          ----            -------------   
00001.M2TS      0:00:00.000     1:24:51.503     18,520,037,376  29,100          
00357.M2TS      1:24:51.503     0:08:31.093     1,861,238,784   29,133          

CHAPTERS:

Number          Time In         Length          Avg Video Rate  Max 1-Sec Rate  Max 1-Sec Time  Max 5-Sec Rate  Max 5-Sec Time  Max 10Sec Rate  Max 10Sec Time  Avg Frame Size  Max Frame Size  Max Frame Time  
------          -------         ------          --------------  --------------  --------------  --------------  --------------  --------------  --------------  --------------  --------------  --------------  
1               0:00:00.000     0:05:31.664     24,808 kbps     44,154 kbps     00:02:37.991    29,889 kbps     00:02:19.556    28,643 kbps     00:02:29.315    129,320 bytes   779,154 bytes   00:02:47.959    
2               0:05:31.664     0:04:42.448     25,210 kbps     37,778 kbps     00:09:47.420    30,424 kbps     00:08:12.408    30,069 kbps     00:08:12.366    131,435 bytes   694,021 bytes   00:09:23.145    
3               0:10:14.113     0:04:20.426     25,039 kbps     34,807 kbps     00:11:10.711    28,339 kbps     00:11:09.126    26,717 kbps     00:11:24.767    130,543 bytes   617,692 bytes   00:12:49.518    
4               0:14:34.540     0:05:12.145     24,145 kbps     31,522 kbps     00:17:15.951    26,675 kbps     00:17:40.851    25,942 kbps     00:14:34.874    125,879 bytes   601,592 bytes   00:14:51.765    
5               0:19:46.685     0:06:35.645     24,634 kbps     40,631 kbps     00:19:54.568    29,191 kbps     00:24:17.622    28,010 kbps     00:21:47.973    128,431 bytes   653,138 bytes   00:25:52.175    
6               0:26:22.330     0:05:32.540     24,727 kbps     38,448 kbps     00:27:18.928    30,682 kbps     00:27:15.592    29,297 kbps     00:27:10.420    128,914 bytes   601,747 bytes   00:31:27.218    
7               0:31:54.871     0:06:52.078     24,240 kbps     33,980 kbps     00:33:13.324    28,127 kbps     00:32:30.448    26,519 kbps     00:33:45.148    126,378 bytes   611,162 bytes   00:33:55.950    
8               0:38:46.949     0:07:46.591     25,280 kbps     38,713 kbps     00:40:24.964    32,121 kbps     00:40:20.960    29,570 kbps     00:40:05.402    131,799 bytes   691,651 bytes   00:42:39.431    
9               0:46:33.540     0:04:16.256     24,985 kbps     41,147 kbps     00:50:08.755    30,789 kbps     00:50:05.919    29,238 kbps     00:50:04.793    130,261 bytes   652,827 bytes   00:48:24.526    
10              0:50:49.796     0:05:18.359     24,960 kbps     35,760 kbps     00:55:30.535    29,416 kbps     00:55:27.323    27,763 kbps     00:54:53.123    130,130 bytes   708,696 bytes   00:51:13.445    
11              0:56:08.156     0:09:36.909     25,237 kbps     37,348 kbps     01:04:37.582    29,867 kbps     01:03:37.855    28,397 kbps     01:00:19.490    131,574 bytes   705,542 bytes   00:58:48.274    
12              1:05:45.066     0:02:36.906     24,177 kbps     38,848 kbps     01:07:23.873    28,817 kbps     01:07:22.538    26,946 kbps     01:07:17.533    126,048 bytes   521,859 bytes   01:07:18.367    
13              1:08:21.972     0:04:29.727     23,909 kbps     32,155 kbps     01:12:19.043    26,369 kbps     01:09:35.880    25,646 kbps     01:12:32.264    124,652 bytes   707,261 bytes   01:11:29.410    
14              1:12:51.700     0:03:15.612     25,424 kbps     36,070 kbps     01:15:33.111    29,920 kbps     01:15:25.354    29,210 kbps     01:15:20.682    132,548 bytes   610,686 bytes   01:14:52.196    
15              1:16:07.312     0:03:02.015     25,993 kbps     37,164 kbps     01:18:19.152    30,902 kbps     01:18:30.622    29,510 kbps     01:18:17.818    135,514 bytes   521,639 bytes   01:17:35.317    
16              1:19:09.327     0:14:13.269     24,601 kbps     40,403 kbps     01:26:42.739    32,236 kbps     01:26:38.735    30,210 kbps     01:26:34.397    128,266 bytes   621,035 bytes   01:21:35.223    

STREAM DIAGNOSTICS:

File            PID             Type            Codec           Language                Seconds                 Bitrate                 Bytes           Packets         
----            ---             ----            -----           --------                --------------          --------------          -------------   -----           
00001.M2TS      4113 (0x1011)   0x1B            AVC                                     5091.378                24,804                  15,785,705,452  85,863,524      
00001.M2TS      4352 (0x1100)   0x86            DTS-HD MA       eng (English)           5091.378                2,230                   1,419,250,196   8,530,806       
00001.M2TS      4353 (0x1101)   0x81            AC3             eng (English)           5091.378                448                     285,125,120     1,591,100       
00001.M2TS      4608 (0x1200)   0x90            PGS             eng (English)           5091.378                55                      35,069,958      202,079         
00001.M2TS      4609 (0x1201)   0x90            PGS             ara (Arabic)            5091.378                26                      16,722,515      100,420         
00357.M2TS      4113 (0x1011)   0x1B            AVC                                     511.011                 24,893                  1,590,045,793   8,648,691       
00357.M2TS      4352 (0x1100)   0x86            DTS-HD MA       eng (English)           511.011                 2,259                   144,299,240     863,544         
00357.M2TS      4353 (0x1101)   0x81            AC3             eng (English)           511.011                 448                     28,623,616      159,730         
00357.M2TS      4608 (0x1200)   0x90            PGS             eng (English)           511.011                 11                      706,088         4,142           
00357.M2TS      4609 (0x1201)   0x90            PGS             ara (Arabic)            511.011                 2                       115,350         712             

[/code]
<---- END FORUMS PASTE ---->

QUICK SUMMARY:

Disc Title: Peter Rabbit 2: The Runaway - Blu-ray™
Disc Label: Peter.Rabbit.2.The.Runaway.2021.COMPLETE.BLURAY-BEATRIX
Disc Size: 28,753,482,429 bytes
Protection: AACS
Playlist: 00358.MPLS
Size: 20,381,276,160 bytes
Length: 1:33:22.596
Total Bitrate: 29.10 Mbps
Video: MPEG-4 AVC Video / 24811 kbps / 1080p / 23.976 fps / 16:9 / High Profile 4.1
Audio: English / DTS-HD Master Audio / 5.1 / 48 kHz /  2233 kbps / 16-bit (DTS Core: 5.1 / 48 kHz /  1509 kbps / 16-bit)
Audio: English / Dolby Digital Audio / 5.1 / 48 kHz /   448 kbps / DN -31dB
Subtitle: English / 51.085 kbps
Subtitle: Arabic / 24.043 kbps


********************
PLAYLIST: 00359.MPLS
********************

<--- BEGIN FORUMS PASTE --->
[code]
                                                                                                                Total   Video                                             
Title                                                           Codec   Length  Movie Size      Disc Size       Bitrate Bitrate Main Audio Track                          Secondary Audio Track
-----                                                           ------  ------- --------------  --------------  ------- ------- ------------------                        ---------------------
00359.MPLS                                                      AVC     1:33:22 20,380,680,192  28,753,482,429  29.10   24.81   DTS-HD Master 5.1 2233Kbps (48kHz/16-bit) DD AC3 5.1 448Kbps
[/code]

[code]

DISC INFO:

Disc Title:     Peter Rabbit 2: The Runaway - Blu-ray™
Disc Label:     Peter.Rabbit.2.The.Runaway.2021.COMPLETE.BLURAY-BEATRIX
Disc Size:      28,753,482,429 bytes
Protection:     AACS
Extras:         BD-Java
BDInfo:         0.7.5.6

PLAYLIST REPORT:

Name:                   00359.MPLS
Length:                 1:33:22.596 (h:m:s.ms)
Size:                   20,380,680,192 bytes
Total Bitrate:          29.10 Mbps

VIDEO:

Codec                   Bitrate             Description     
-----                   -------             -----------     
MPEG-4 AVC Video        24810 kbps          1080p / 23.976 fps / 16:9 / High Profile 4.1

AUDIO:

Codec                           Language        Bitrate         Description     
-----                           --------        -------         -----------     
DTS-HD Master Audio             English         2233 kbps       5.1 / 48 kHz /  2233 kbps / 16-bit (DTS Core: 5.1 / 48 kHz /  1509 kbps / 16-bit)
Dolby Digital Audio             English         448 kbps        5.1 / 48 kHz /   448 kbps / DN -31dB

SUBTITLES:

Codec                           Language        Bitrate         Description     
-----                           --------        -------         -----------     
Presentation Graphics           English         51.085 kbps                     
Presentation Graphics           Arabic          24.043 kbps                     

FILES:

Name            Time In         Length          Size            Total Bitrate   
----            -------         ------          ----            -------------   
00001.M2TS      0:00:00.000     1:24:51.503     18,520,037,376  29,100          
00358.M2TS      1:24:51.503     0:08:31.093     1,860,642,816   29,124          

CHAPTERS:

Number          Time In         Length          Avg Video Rate  Max 1-Sec Rate  Max 1-Sec Time  Max 5-Sec Rate  Max 5-Sec Time  Max 10Sec Rate  Max 10Sec Time  Avg Frame Size  Max Frame Size  Max Frame Time  
------          -------         ------          --------------  --------------  --------------  --------------  --------------  --------------  --------------  --------------  --------------  --------------  
1               0:00:00.000     0:05:31.664     24,808 kbps     44,154 kbps     00:02:37.991    29,889 kbps     00:02:19.556    28,643 kbps     00:02:29.315    129,320 bytes   779,154 bytes   00:02:47.959    
2               0:05:31.664     0:04:42.448     25,210 kbps     37,778 kbps     00:09:47.420    30,424 kbps     00:08:12.408    30,069 kbps     00:08:12.366    131,435 bytes   694,021 bytes   00:09:23.145    
3               0:10:14.113     0:04:20.426     25,039 kbps     34,807 kbps     00:11:10.711    28,339 kbps     00:11:09.126    26,717 kbps     00:11:24.767    130,543 bytes   617,692 bytes   00:12:49.518    
4               0:14:34.540     0:05:12.145     24,145 kbps     31,522 kbps     00:17:15.951    26,675 kbps     00:17:40.851    25,942 kbps     00:14:34.874    125,879 bytes   601,592 bytes   00:14:51.765    
5               0:19:46.685     0:06:35.645     24,634 kbps     40,631 kbps     00:19:54.568    29,191 kbps     00:24:17.622    28,010 kbps     00:21:47.973    128,431 bytes   653,138 bytes   00:25:52.175    
6               0:26:22.330     0:05:32.540     24,727 kbps     38,448 kbps     00:27:18.928    30,682 kbps     00:27:15.592    29,297 kbps     00:27:10.420    128,914 bytes   601,747 bytes   00:31:27.218    
7               0:31:54.871     0:06:52.078     24,240 kbps     33,980 kbps     00:33:13.324    28,127 kbps     00:32:30.448    26,519 kbps     00:33:45.148    126,378 bytes   611,162 bytes   00:33:55.950    
8               0:38:46.949     0:07:46.591     25,280 kbps     38,713 kbps     00:40:24.964    32,121 kbps     00:40:20.960    29,570 kbps     00:40:05.402    131,799 bytes   691,651 bytes   00:42:39.431    
9               0:46:33.540     0:04:16.256     24,985 kbps     41,147 kbps     00:50:08.755    30,789 kbps     00:50:05.919    29,238 kbps     00:50:04.793    130,261 bytes   652,827 bytes   00:48:24.526    
10              0:50:49.796     0:05:18.359     24,960 kbps     35,760 kbps     00:55:30.535    29,416 kbps     00:55:27.323    27,763 kbps     00:54:53.123    130,130 bytes   708,696 bytes   00:51:13.445    
11              0:56:08.156     0:09:36.909     25,237 kbps     37,348 kbps     01:04:37.582    29,867 kbps     01:03:37.855    28,397 kbps     01:00:19.490    131,574 bytes   705,542 bytes   00:58:48.274    
12              1:05:45.066     0:02:36.906     24,177 kbps     38,848 kbps     01:07:23.873    28,817 kbps     01:07:22.538    26,946 kbps     01:07:17.533    126,048 bytes   521,859 bytes   01:07:18.367    
13              1:08:21.972     0:04:29.727     23,909 kbps     32,155 kbps     01:12:19.043    26,369 kbps     01:09:35.880    25,646 kbps     01:12:32.264    124,652 bytes   707,261 bytes   01:11:29.410    
14              1:12:51.700     0:03:15.612     25,424 kbps     36,070 kbps     01:15:33.111    29,920 kbps     01:15:25.354    29,210 kbps     01:15:20.682    132,548 bytes   610,686 bytes   01:14:52.196    
15              1:16:07.312     0:03:02.015     25,993 kbps     37,164 kbps     01:18:19.152    30,902 kbps     01:18:30.622    29,510 kbps     01:18:17.818    135,514 bytes   521,639 bytes   01:17:35.317    
16              1:19:09.327     0:14:13.269     24,596 kbps     41,993 kbps     01:26:16.421    32,784 kbps     01:26:13.084    30,812 kbps     01:26:08.079    128,237 bytes   710,122 bytes   01:30:09.237    

STREAM DIAGNOSTICS:

File            PID             Type            Codec           Language                Seconds                 Bitrate                 Bytes           Packets         
----            ---             ----            -----           --------                --------------          --------------          -------------   -----           
00001.M2TS      4113 (0x1011)   0x1B            AVC                                     5091.378                24,804                  15,785,705,452  85,863,524      
00001.M2TS      4352 (0x1100)   0x86            DTS-HD MA       eng (English)           5091.378                2,230                   1,419,250,196   8,530,806       
00001.M2TS      4353 (0x1101)   0x81            AC3             eng (English)           5091.378                448                     285,125,120     1,591,100       
00001.M2TS      4608 (0x1200)   0x90            PGS             eng (English)           5091.378                55                      35,069,958      202,079         
00001.M2TS      4609 (0x1201)   0x90            PGS             ara (Arabic)            5091.378                26                      16,722,515      100,420         
00358.M2TS      4113 (0x1011)   0x1B            AVC                                     510.969                 24,885                  1,589,462,936   8,645,597       
00358.M2TS      4352 (0x1100)   0x86            DTS-HD MA       eng (English)           510.969                 2,259                   144,299,240     863,544         
00358.M2TS      4353 (0x1101)   0x81            AC3             eng (English)           510.969                 448                     28,623,616      159,730         
00358.M2TS      4608 (0x1200)   0x90            PGS             eng (English)           510.969                 11                      706,088         4,142           
00358.M2TS      4609 (0x1201)   0x90            PGS             ara (Arabic)            510.969                 2                       115,350         712             

[/code]
<---- END FORUMS PASTE ---->

QUICK SUMMARY:

Disc Title: Peter Rabbit 2: The Runaway - Blu-ray™
Disc Label: Peter.Rabbit.2.The.Runaway.2021.COMPLETE.BLURAY-BEATRIX
Disc Size: 28,753,482,429 bytes
Protection: AACS
Playlist: 00359.MPLS
Size: 20,380,680,192 bytes
Length: 1:33:22.596
Total Bitrate: 29.10 Mbps
Video: MPEG-4 AVC Video / 24810 kbps / 1080p / 23.976 fps / 16:9 / High Profile 4.1
Audio: English / DTS-HD Master Audio / 5.1 / 48 kHz /  2233 kbps / 16-bit (DTS Core: 5.1 / 48 kHz /  1509 kbps / 16-bit)
Audio: English / Dolby Digital Audio / 5.1 / 48 kHz /   448 kbps / DN -31dB
Subtitle: English / 51.085 kbps
Subtitle: Arabic / 24.043 kbps


********************
PLAYLIST: 00001.MPLS
********************

<--- BEGIN FORUMS PASTE --->
[code]
                                                                                                                Total   Video                                             
Title                                                           Codec   Length  Movie Size      Disc Size       Bitrate Bitrate Main Audio Track                          Secondary Audio Track
-----                                                           ------  ------- --------------  --------------  ------- ------- ------------------                        ---------------------
00001.MPLS                                                      AVC     1:24:51 18,520,037,376  28,753,482,429  29.10   24.80   DTS-HD Master 5.1 2230Kbps (48kHz/16-bit) DD AC3 5.1 448Kbps
[/code]

[code]

DISC INFO:

Disc Title:     Peter Rabbit 2: The Runaway - Blu-ray™
Disc Label:     Peter.Rabbit.2.The.Runaway.2021.COMPLETE.BLURAY-BEATRIX
Disc Size:      28,753,482,429 bytes
Protection:     AACS
Extras:         BD-Java
BDInfo:         0.7.5.6

PLAYLIST REPORT:

Name:                   00001.MPLS
Length:                 1:24:51.503 (h:m:s.ms)
Size:                   18,520,037,376 bytes
Total Bitrate:          29.10 Mbps

VIDEO:

Codec                   Bitrate             Description     
-----                   -------             -----------     
MPEG-4 AVC Video        24803 kbps          1080p / 23.976 fps / 16:9 / High Profile 4.1

AUDIO:

Codec                           Language        Bitrate         Description     
-----                           --------        -------         -----------     
DTS-HD Master Audio             English         2230 kbps       5.1 / 48 kHz /  2230 kbps / 16-bit (DTS Core: 5.1 / 48 kHz /  1509 kbps / 16-bit)
Dolby Digital Audio             English         448 kbps        5.1 / 48 kHz /   448 kbps / DN -31dB

SUBTITLES:

Codec                           Language        Bitrate         Description     
-----                           --------        -------         -----------     
Presentation Graphics           English         55.104 kbps                     
Presentation Graphics           Arabic          26.275 kbps                     

FILES:

Name            Time In         Length          Size            Total Bitrate   
----            -------         ------          ----            -------------   
00001.M2TS      0:00:00.000     1:24:51.503     18,520,037,376  29,100          

CHAPTERS:

Number          Time In         Length          Avg Video Rate  Max 1-Sec Rate  Max 1-Sec Time  Max 5-Sec Rate  Max 5-Sec Time  Max 10Sec Rate  Max 10Sec Time  Avg Frame Size  Max Frame Size  Max Frame Time  
------          -------         ------          --------------  --------------  --------------  --------------  --------------  --------------  --------------  --------------  --------------  --------------  
1               0:00:00.000     0:05:31.664     24,808 kbps     44,154 kbps     00:02:37.991    29,889 kbps     00:02:19.556    28,643 kbps     00:02:29.315    129,320 bytes   779,154 bytes   00:02:47.959    
2               0:05:31.664     0:04:42.448     25,210 kbps     37,778 kbps     00:09:47.420    30,424 kbps     00:08:12.408    30,069 kbps     00:08:12.366    131,435 bytes   694,021 bytes   00:09:23.145    
3               0:10:14.113     0:04:20.426     25,039 kbps     34,807 kbps     00:11:10.711    28,339 kbps     00:11:09.126    26,717 kbps     00:11:24.767    130,543 bytes   617,692 bytes   00:12:49.518    
4               0:14:34.540     0:05:12.145     24,145 kbps     31,522 kbps     00:17:15.951    26,675 kbps     00:17:40.851    25,942 kbps     00:14:34.874    125,879 bytes   601,592 bytes   00:14:51.765    
5               0:19:46.685     0:06:35.645     24,634 kbps     40,631 kbps     00:19:54.568    29,191 kbps     00:24:17.622    28,010 kbps     00:21:47.973    128,431 bytes   653,138 bytes   00:25:52.175    
6               0:26:22.330     0:05:32.540     24,727 kbps     38,448 kbps     00:27:18.928    30,682 kbps     00:27:15.592    29,297 kbps     00:27:10.420    128,914 bytes   601,747 bytes   00:31:27.218    
7               0:31:54.871     0:06:52.078     24,240 kbps     33,980 kbps     00:33:13.324    28,127 kbps     00:32:30.448    26,519 kbps     00:33:45.148    126,378 bytes   611,162 bytes   00:33:55.950    
8               0:38:46.949     0:07:46.591     25,280 kbps     38,713 kbps     00:40:24.964    32,121 kbps     00:40:20.960    29,570 kbps     00:40:05.402    131,799 bytes   691,651 bytes   00:42:39.431    
9               0:46:33.540     0:04:16.256     24,985 kbps     41,147 kbps     00:50:08.755    30,789 kbps     00:50:05.919    29,238 kbps     00:50:04.793    130,261 bytes   652,827 bytes   00:48:24.526    
10              0:50:49.796     0:05:18.359     24,960 kbps     35,760 kbps     00:55:30.535    29,416 kbps     00:55:27.323    27,763 kbps     00:54:53.123    130,130 bytes   708,696 bytes   00:51:13.445    
11              0:56:08.156     0:09:36.909     25,237 kbps     37,348 kbps     01:04:37.582    29,867 kbps     01:03:37.855    28,397 kbps     01:00:19.490    131,574 bytes   705,542 bytes   00:58:48.274    
12              1:05:45.066     0:02:36.906     24,177 kbps     38,848 kbps     01:07:23.873    28,817 kbps     01:07:22.538    26,946 kbps     01:07:17.533    126,048 bytes   521,859 bytes   01:07:18.367    
13              1:08:21.972     0:04:29.727     23,909 kbps     32,155 kbps     01:12:19.043    26,369 kbps     01:09:35.880    25,646 kbps     01:12:32.264    124,652 bytes   707,261 bytes   01:11:29.410    
14              1:12:51.700     0:03:15.612     25,424 kbps     36,070 kbps     01:15:33.111    29,920 kbps     01:15:25.354    29,210 kbps     01:15:20.682    132,548 bytes   610,686 bytes   01:14:52.196    
15              1:16:07.312     0:03:02.015     25,993 kbps     37,164 kbps     01:18:19.152    30,902 kbps     01:18:30.622    29,510 kbps     01:18:17.818    135,514 bytes   521,639 bytes   01:17:35.317    
16              1:19:09.327     0:05:42.175     24,172 kbps     33,213 kbps     01:23:28.503    28,684 kbps     01:20:54.182    27,962 kbps     01:20:54.182    126,037 bytes   621,035 bytes   01:21:35.223    

STREAM DIAGNOSTICS:

File            PID             Type            Codec           Language                Seconds                 Bitrate                 Bytes           Packets         
----            ---             ----            -----           --------                --------------          --------------          -------------   -----           
00001.M2TS      4113 (0x1011)   0x1B            AVC                                     5091.378                24,804                  15,785,705,452  85,863,524      
00001.M2TS      4352 (0x1100)   0x86            DTS-HD MA       eng (English)           5091.378                2,230                   1,419,250,196   8,530,806       
00001.M2TS      4353 (0x1101)   0x81            AC3             eng (English)           5091.378                448                     285,125,120     1,591,100       
00001.M2TS      4608 (0x1200)   0x90            PGS             eng (English)           5091.378                55                      35,069,958      202,079         
00001.M2TS      4609 (0x1201)   0x90            PGS             ara (Arabic)            5091.378                26                      16,722,515      100,420         

[/code]
<---- END FORUMS PASTE ---->

QUICK SUMMARY:

Disc Title: Peter Rabbit 2: The Runaway - Blu-ray™
Disc Label: Peter.Rabbit.2.The.Runaway.2021.COMPLETE.BLURAY-BEATRIX
Disc Size: 28,753,482,429 bytes
Protection: AACS
Playlist: 00001.MPLS
Size: 18,520,037,376 bytes
Length: 1:24:51.503
Total Bitrate: 29.10 Mbps
Video: MPEG-4 AVC Video / 24803 kbps / 1080p / 23.976 fps / 16:9 / High Profile 4.1
Audio: English / DTS-HD Master Audio / 5.1 / 48 kHz /  2230 kbps / 16-bit (DTS Core: 5.1 / 48 kHz /  1509 kbps / 16-bit)
Audio: English / Dolby Digital Audio / 5.1 / 48 kHz /   448 kbps / DN -31dB
Subtitle: English / 55.104 kbps
Subtitle: Arabic / 26.275 kbps

